ffmpeg version git-2019-10-28-68f623d Copyright (c) 2000-2019 the FFmpeg developers
  built with gcc 9.2.1 (GCC) 20191010
  configuration: --enable-gpl --enable-version3 --enable-sdl2 --enable-fontconfig --enable-gnutls --enable-iconv --enable-libass --enable-libdav1d --enable-libbluray --enable-libfreetype --enable-libmp3lame --enable-libopencore-amrnb --enable-libopencore-amrwb --enable-libopenjpeg --enable-libopus --enable-libshine --enable-libsnappy --enable-libsoxr --enable-libtheora --enable-libtwolame --enable-libvpx --enable-libwavpack --enable-libwebp --enable-libx264 --enable-libx265 --enable-libxml2 --enable-libzimg --enable-lzma --enable-zlib --enable-gmp --enable-libvidstab --enable-libvorbis --enable-libvo-amrwbenc --enable-libmysofa --enable-libspeex --enable-libxvid --enable-libaom --enable-libmfx --enable-ffnvcodec --enable-cuvid --enable-d3d11va --enable-nvenc --enable-nvdec --enable-dxva2 --enable-avisynth --enable-libopenmpt --enable-amf
  libavutil      56. 35.101 / 56. 35.101
  libavcodec     58. 60.100 / 58. 60.100
  libavformat    58. 33.100 / 58. 33.100
  libavdevice    58.  9.100 / 58.  9.100
  libavfilter     7. 65.100 /  7. 65.100
  libswscale      5.  6.100 /  5.  6.100
  libswresample   3.  6.100 /  3.  6.100
  libpostproc    55.  6.100 / 55.  6.100
Splitting the commandline.
Reading option '-v' ... matched as option 'v' (set logging level) with argument 'debug'.
Reading option '-nostdin' ... matched as option 'stdin' (enable or disable interaction on standard input) with argument 0.
Reading option '-progress' ... matched as option 'progress' (write program-readable progress information) with argument 'C:/Users/teeja/AppData/Local/Temp/KritaFFmpegProgress.ybwYlJ'.
Reading option '-r' ... matched as option 'r' (set frame rate (Hz value, fraction or abbreviation)) with argument '18'.
Reading option '-start_number' ... matched as AVOption 'start_number' with argument '0'.
Reading option '-i' ... matched as input url with argument 'D:/Pictures/[MyStuff]/[Art]/[Krita Files]/CAR-NAGE School Project/Sprites/Fast Enemy/pngs/FastEnemyAnim%04d.png'.
Reading option '-i' ... matched as input url with argument 'D:/Pictures/[MyStuff]/[Art]/[Krita Files]/CAR-NAGE School Project/Sprites/Fast Enemy/palette.png'.
Reading option '-lavfi' ... matched as option 'lavfi' (create a complex filtergraph) with argument '[0:v][1:v] paletteuse'.
Reading option '-y' ... matched as option 'y' (overwrite output files) with argument '1'.
Reading option 'D:/Pictures/[MyStuff]/[Art]/[Krita Files]/CAR-NAGE School Project/Sprites/Fast Enemy/FastEnemyAnim_GIF.gif' ... matched as output url.
Finished splitting the commandline.
Parsing a group of options: global .
Applying option v (set logging level) with argument debug.
Applying option nostdin (enable or disable interaction on standard input) with argument 0.
Applying option progress (write program-readable progress information) with argument C:/Users/teeja/AppData/Local/Temp/KritaFFmpegProgress.ybwYlJ.
[file @ 0000014ada89af80] Setting default whitelist 'file,crypto'
Applying option lavfi (create a complex filtergraph) with argument [0:v][1:v] paletteuse.
Applying option y (overwrite output files) with argument 1.
Successfully parsed a group of options.
Parsing a group of options: input url D:/Pictures/[MyStuff]/[Art]/[Krita Files]/CAR-NAGE School Project/Sprites/Fast Enemy/pngs/FastEnemyAnim%04d.png.
Applying option r (set frame rate (Hz value, fraction or abbreviation)) with argument 18.
Successfully parsed a group of options.
Opening an input file: D:/Pictures/[MyStuff]/[Art]/[Krita Files]/CAR-NAGE School Project/Sprites/Fast Enemy/pngs/FastEnemyAnim%04d.png.
[image2 @ 0000014ada8dbc40] Opening 'D:/Pictures/[MyStuff]/[Art]/[Krita Files]/CAR-NAGE School Project/Sprites/Fast Enemy/pngs/FastEnemyAnim0000.png' for reading
[file @ 0000014ada8df380] Setting default whitelist 'file,crypto'
[AVIOContext @ 0000014ada8e7540] Statistics: 275678 bytes read, 0 seeks
[image2 @ 0000014ada8dbc40] Opening 'D:/Pictures/[MyStuff]/[Art]/[Krita Files]/CAR-NAGE School Project/Sprites/Fast Enemy/pngs/FastEnemyAnim0001.png' for reading
[file @ 0000014adad9dc00] Setting default whitelist 'file,crypto'
[AVIOContext @ 0000014adad9dd80] Statistics: 281052 bytes read, 0 seeks
[image2 @ 0000014ada8dbc40] Opening 'D:/Pictures/[MyStuff]/[Art]/[Krita Files]/CAR-NAGE School Project/Sprites/Fast Enemy/pngs/FastEnemyAnim0002.png' for reading
[file @ 0000014adad9dcc0] Setting default whitelist 'file,crypto'
[AVIOContext @ 0000014adade2a40] Statistics: 276344 bytes read, 0 seeks
[image2 @ 0000014ada8dbc40] Opening 'D:/Pictures/[MyStuff]/[Art]/[Krita Files]/CAR-NAGE School Project/Sprites/Fast Enemy/pngs/FastEnemyAnim0003.png' for reading
[file @ 0000014adad9dcc0] Setting default whitelist 'file,crypto'
[AVIOContext @ 0000014adae26400] Statistics: 278603 bytes read, 0 seeks
[image2 @ 0000014ada8dbc40] Opening 'D:/Pictures/[MyStuff]/[Art]/[Krita Files]/CAR-NAGE School Project/Sprites/Fast Enemy/pngs/FastEnemyAnim0004.png' for reading
[file @ 0000014adad9dcc0] Setting default whitelist 'file,crypto'
[AVIOContext @ 0000014ada935080] Statistics: 279002 bytes read, 0 seeks
[image2 @ 0000014ada8dbc40] Opening 'D:/Pictures/[MyStuff]/[Art]/[Krita Files]/CAR-NAGE School Project/Sprites/Fast Enemy/pngs/FastEnemyAnim0005.png' for reading
[file @ 0000014adad9dcc0] Setting default whitelist 'file,crypto'
[AVIOContext @ 0000014ada935240] Statistics: 276812 bytes read, 0 seeks
[image2 @ 0000014ada8dbc40] Opening 'D:/Pictures/[MyStuff]/[Art]/[Krita Files]/CAR-NAGE School Project/Sprites/Fast Enemy/pngs/FastEnemyAnim0006.png' for reading
[file @ 0000014adad9dcc0] Setting default whitelist 'file,crypto'
[AVIOContext @ 0000014ada935400] Statistics: 276432 bytes read, 0 seeks
Input #0, image2, from 'D:/Pictures/[MyStuff]/[Art]/[Krita Files]/CAR-NAGE School Project/Sprites/Fast Enemy/pngs/FastEnemyAnim%04d.png':
  Duration: 00:00:00.28, start: 0.000000, bitrate: N/A
    Stream #0:0, 7, 1/25: Video: png, 1 reference frame, rgba64be(pc), 480x150 [SAR 11811:11811 DAR 16:5], 0/1, 25 fps, 25 tbr, 25 tbn, 25 tbc
Successfully opened the file.
Parsing a group of options: input url D:/Pictures/[MyStuff]/[Art]/[Krita Files]/CAR-NAGE School Project/Sprites/Fast Enemy/palette.png.
Successfully parsed a group of options.
Opening an input file: D:/Pictures/[MyStuff]/[Art]/[Krita Files]/CAR-NAGE School Project/Sprites/Fast Enemy/palette.png.
[NULL @ 0000014adaf53f00] Opening 'D:/Pictures/[MyStuff]/[Art]/[Krita Files]/CAR-NAGE School Project/Sprites/Fast Enemy/palette.png' for reading
[file @ 0000014ada935c40] Setting default whitelist 'file,crypto'
[png_pipe @ 0000014adaf53f00] Format png_pipe probed with size=2048 and score=99
[png_pipe @ 0000014adaf53f00] Before avformat_find_stream_info() pos: 0 bytes read:992 seeks:0 nb_streams:1
[png_pipe @ 0000014adaf53f00] After avformat_find_stream_info() pos: 992 bytes read:992 seeks:0 frames:1
Input #1, png_pipe, from 'D:/Pictures/[MyStuff]/[Art]/[Krita Files]/CAR-NAGE School Project/Sprites/Fast Enemy/palette.png':
  Duration: N/A, bitrate: N/A
    Stream #1:0, 1, 1/25: Video: png, 1 reference frame, rgba(pc), 16x16 [SAR 1:1 DAR 1:1], 0/1, 25 tbr, 25 tbn, 25 tbc
Successfully opened the file.
Parsing a group of options: output url D:/Pictures/[MyStuff]/[Art]/[Krita Files]/CAR-NAGE School Project/Sprites/Fast Enemy/FastEnemyAnim_GIF.gif.
Successfully parsed a group of options.
Opening an output file: D:/Pictures/[MyStuff]/[Art]/[Krita Files]/CAR-NAGE School Project/Sprites/Fast Enemy/FastEnemyAnim_GIF.gif.
[file @ 0000014ada8de4c0] Setting default whitelist 'file,crypto'
Successfully opened the file.
detected 12 logical cores
Stream mapping:
  Stream #0:0 (png) -> paletteuse:default
  Stream #1:0 (png) -> paletteuse:palette
  paletteuse -> Stream #0:0 (gif)
cur_dts is invalid st:0 (0) [init:0 i_done:0 finish:0] (this is harmless if it occurs once at the start per stream)
    Last message repeated 2521 times
[graph 0 input from stream 0:0 @ 0000014adaf0ee00] Setting 'video_size' to value '480x150'
[graph 0 input from stream 0:0 @ 0000014adaf0ee00] Setting 'pix_fmt' to value '106'
[graph 0 input from stream 0:0 @ 0000014adaf0ee00] Setting 'time_base' to value '1/18'
[graph 0 input from stream 0:0 @ 0000014adaf0ee00] Setting 'pixel_aspect' to value '11811/11811'
[graph 0 input from stream 0:0 @ 0000014adaf0ee00] Setting 'sws_param' to value 'flags=2'
[graph 0 input from stream 0:0 @ 0000014adaf0ee00] Setting 'frame_rate' to value '18/1'
[graph 0 input from stream 0:0 @ 0000014adaf0ee00] w:480 h:150 pixfmt:rgba64be tb:1/18 fr:18/1 sar:11811/11811 sws_param:flags=2
[graph 0 input from stream 1:0 @ 0000014adad518c0] Setting 'video_size' to value '16x16'
[graph 0 input from stream 1:0 @ 0000014adad518c0] Setting 'pix_fmt' to value '26'
[graph 0 input from stream 1:0 @ 0000014adad518c0] Setting 'time_base' to value '1/25'
[graph 0 input from stream 1:0 @ 0000014adad518c0] Setting 'pixel_aspect' to value '1/1'
[graph 0 input from stream 1:0 @ 0000014adad518c0] Setting 'sws_param' to value 'flags=2'
[graph 0 input from stream 1:0 @ 0000014adad518c0] Setting 'frame_rate' to value '25/1'
[graph 0 input from stream 1:0 @ 0000014adad518c0] w:16 h:16 pixfmt:rgba tb:1/25 fr:25/1 sar:1/1 sws_param:flags=2
[format @ 0000014adb41fe80] Setting 'pix_fmts' to value 'rgb8|bgr8|rgb4_byte|bgr4_byte|gray|pal8'
[auto_scaler_0 @ 0000014adb41fd40] w:iw h:ih flags:'bilinear' interl:0
[Parsed_paletteuse_0 @ 0000014adaf0ed00] auto-inserting filter 'auto_scaler_0' between the filter 'graph 0 input from stream 0:0' and the filter 'Parsed_paletteuse_0'
[auto_scaler_1 @ 0000014adad5efc0] w:iw h:ih flags:'bilinear' interl:0
[Parsed_paletteuse_0 @ 0000014adaf0ed00] auto-inserting filter 'auto_scaler_1' between the filter 'graph 0 input from stream 1:0' and the filter 'Parsed_paletteuse_0'
[AVFilterGraph @ 0000014adad63d00] query_formats: 5 queried, 2 merged, 2 already done, 0 delayed
[swscaler @ 0000014adaef4fc0] Forcing full internal H chroma due to input having non subsampled chroma
[auto_scaler_0 @ 0000014adb41fd40] w:480 h:150 fmt:rgba64be sar:11811/11811 -> w:480 h:150 fmt:bgra sar:1/1 flags:0x2
[swscaler @ 0000014ada95ef80] Forcing full internal H chroma due to input having non subsampled chroma
[auto_scaler_1 @ 0000014adad5efc0] w:16 h:16 fmt:rgba sar:1/1 -> w:16 h:16 fmt:bgra sar:1/1 flags:0x2
[Parsed_paletteuse_0 @ 0000014adaf0ed00] [framesync @ 0000014adb39df48] Selected 1/450 time base
[Parsed_paletteuse_0 @ 0000014adaf0ed00] [framesync @ 0000014adb39df48] Sync level 2
Output #0, gif, to 'D:/Pictures/[MyStuff]/[Art]/[Krita Files]/CAR-NAGE School Project/Sprites/Fast Enemy/FastEnemyAnim_GIF.gif':
  Metadata:
    encoder         : Lavf58.33.100
    Stream #0:0, 0, 1/100: Video: gif, 1 reference frame, pal8, 480x150 [SAR 1:1 DAR 16:5], 0/1, q=2-31, 200 kb/s, 18 fps, 100 tbn, 18 tbc (default)
    Metadata:
      encoder         : Lavc58.60.100 gif
Clipping frame in rate conversion by 0.000008
[gif @ 0000014ada8dd7c0] 458x130 image at pos (1;20) [area:480x150]
[gif @ 0000014ada8dd7c0] 457x129 image at pos (0;21) [area:480x150]
[gif @ 0000014ada8dd7c0] 457x131 image at pos (0;19) [area:480x150]
    Last message repeated 1 times
[gif @ 0000014ada8dd7c0] 457x129 image at pos (3;21) [area:480x150]
[gif @ 0000014ada8dd7c0] 457x128 image at pos (2;22) [area:480x150]
[Parsed_paletteuse_0 @ 0000014adaf0ed00] [framesync @ 0000014adb39df48] Sync level 0
[out_0_0 @ 0000014adad65340] EOF on sink link out_0_0:default.
No more output streams to write to, finishing.
frame=    7 fps=0.0 q=-0.0 Lsize=     221kB time=00:00:00.34 bitrate=5335.5kbits/s speed= 5.5x    
[AVIOContext @ 0000014ada8dba80] Statistics: 0 seeks, 1 writeouts
video:221kB audio:0kB subtitle:0kB other streams:0kB global headers:0kB muxing overhead: 0.008821%
Input file #0 (D:/Pictures/[MyStuff]/[Art]/[Krita Files]/CAR-NAGE School Project/Sprites/Fast Enemy/pngs/FastEnemyAnim%04d.png):
  Input stream #0:0 (video): 7 packets read (1943923 bytes); 7 frames decoded; 
  Total: 7 packets (1943923 bytes) demuxed
Input file #1 (D:/Pictures/[MyStuff]/[Art]/[Krita Files]/CAR-NAGE School Project/Sprites/Fast Enemy/palette.png):
  Input stream #1:0 (video): 1 packets read (992 bytes); 1 frames decoded; 
  Total: 1 packets (992 bytes) demuxed
Output file #0 (D:/Pictures/[MyStuff]/[Art]/[Krita Files]/CAR-NAGE School Project/Sprites/Fast Enemy/FastEnemyAnim_GIF.gif):
  Output stream #0:0 (video): 7 frames encoded; 7 packets muxed (226737 bytes); 
  Total: 7 packets (226737 bytes) muxed
8 frames successfully decoded, 0 decoding errors
[AVIOContext @ 0000014ada8de680] Statistics: 0 seeks, 1 writeouts
[AVIOContext @ 0000014ada935e40] Statistics: 992 bytes read, 0 seeks
